<svg xmlns="http://www.w3.org/2000/svg" xmlns:xlink="http://www.w3.org/1999/xlink" width="2000" zoomAndPan="magnify" viewBox="0 0 1500 1499.999933" height="2000" preserveAspectRatio="xMidYMid meet" version="1.0"><defs><g/><clipPath id="ad33943310"><path d="M 467.667969 525 L 828 525 L 828 619 L 467.667969 619 Z M 467.667969 525 " clip-rule="nonzero"/></clipPath><clipPath id="d297cf9520"><path d="M 613 601 L 1035 601 L 1035 681.800781 L 613 681.800781 Z M 613 601 " clip-rule="nonzero"/></clipPath></defs><path fill="#7d7778" d="M 926.984375 580.976562 C 941.730469 577.28125 957.578125 582.089844 970.246094 590.457031 C 981.449219 597.902344 990.679688 607.941406 999.546875 618.164062 L 872.007812 618.164062 C 891.402344 608.039062 905.390625 586.398438 926.984375 580.976562 Z M 926.984375 580.976562 " fill-opacity="1" fill-rule="nonzero"/><g clip-path="url(#ad33943310)"><path fill="#7d7778" d="M 486.980469 601.382812 C 504.785156 584.8125 528.855469 568.164062 551.527344 576.851562 C 564.730469 581.898438 573.933594 594.628906 587.195312 599.421875 C 609.988281 607.632812 633.59375 589.734375 649.136719 571.179688 C 664.683594 552.625 680.257812 530.410156 704.109375 526.1875 C 725.574219 522.386719 746.792969 535.019531 761.847656 550.800781 C 776.902344 566.578125 788.035156 585.828125 803.554688 601.109375 C 810.691406 608.234375 818.832031 613.929688 827.96875 618.199219 L 467.667969 618.199219 C 474.460938 612.976562 480.90625 607.054688 486.980469 601.382812 Z M 486.980469 601.382812 " fill-opacity="1" fill-rule="nonzero"/></g><g clip-path="url(#d297cf9520)"><path fill="#c4c3c5" d="M 613.453125 681.484375 C 629.824219 629.652344 679.671875 629.460938 699.316406 639.585938 C 711.546875 645.921875 721.886719 656.183594 735.074219 660.140625 C 761.691406 668.109375 775.972656 644.628906 797.859375 627.496094 C 819.75 610.363281 843.464844 592.777344 867.152344 607.3125 C 887.429688 619.757812 911.378906 655.304688 933.597656 663.820312 C 946.253906 668.679688 960.449219 664.679688 973.238281 660.0625 C 986.023438 655.441406 999.332031 650.117188 1012.6875 652.460938 C 1026.046875 654.804688 1038.367188 668.601562 1033.585938 681.296875 Z M 613.453125 681.484375 " fill-opacity="1" fill-rule="nonzero"/></g><g fill="#e2e2e5" fill-opacity="1"><g transform="translate(283.461378, 935.842507)"><g><path d="M 3.65625 -31.921875 L 14.40625 -31.921875 C 17.082031 -31.921875 19.445312 -31.472656 21.5 -30.578125 C 23.550781 -29.679688 25.171875 -28.457031 26.359375 -26.90625 C 27.546875 -25.351562 28.425781 -23.65625 29 -21.8125 C 29.582031 -19.976562 29.875 -18.03125 29.875 -15.96875 C 29.875 -14.445312 29.710938 -12.953125 29.390625 -11.484375 C 29.078125 -10.023438 28.523438 -8.585938 27.734375 -7.171875 C 26.941406 -5.765625 25.96875 -4.535156 24.8125 -3.484375 C 23.65625 -2.441406 22.164062 -1.597656 20.34375 -0.953125 C 18.519531 -0.316406 16.484375 0 14.234375 0 L 3.65625 0 Z M 14.953125 -5.84375 C 17.847656 -5.84375 19.992188 -6.851562 21.390625 -8.875 C 22.785156 -10.894531 23.484375 -13.257812 23.484375 -15.96875 C 23.484375 -18.726562 22.800781 -21.101562 21.4375 -23.09375 C 20.070312 -25.09375 18.082031 -26.09375 15.46875 -26.09375 L 9.8125 -26.09375 L 9.8125 -5.84375 Z M 14.953125 -5.84375 "/></g></g></g><g fill="#e2e2e5" fill-opacity="1"><g transform="translate(328.479444, 935.842507)"><g><path d="M 25.3125 0 L 22.84375 -6.609375 L 10.53125 -6.609375 L 8.078125 0 L 1.453125 0 L 13.6875 -31.921875 L 19.703125 -31.921875 L 31.921875 0 Z M 20.84375 -12.21875 L 17.703125 -20.53125 C 17.210938 -21.738281 16.875 -22.691406 16.6875 -23.390625 C 16.507812 -22.691406 16.175781 -21.738281 15.6875 -20.53125 L 12.546875 -12.21875 Z M 20.84375 -12.21875 "/></g></g></g><g fill="#e2e2e5" fill-opacity="1"><g transform="translate(374.500917, 935.842507)"><g><path d="M 16.875 -26 L 16.875 0 L 10.71875 0 L 10.71875 -26 L 1.59375 -26 L 1.59375 -31.921875 L 26 -31.921875 L 26 -26 Z M 16.875 -26 "/></g></g></g><g fill="#e2e2e5" fill-opacity="1"><g transform="translate(414.730009, 935.842507)"><g><path d="M 25.3125 0 L 22.84375 -6.609375 L 10.53125 -6.609375 L 8.078125 0 L 1.453125 0 L 13.6875 -31.921875 L 19.703125 -31.921875 L 31.921875 0 Z M 20.84375 -12.21875 L 17.703125 -20.53125 C 17.210938 -21.738281 16.875 -22.691406 16.6875 -23.390625 C 16.507812 -22.691406 16.175781 -21.738281 15.6875 -20.53125 L 12.546875 -12.21875 Z M 20.84375 -12.21875 "/></g></g></g><g fill="#e2e2e5" fill-opacity="1"><g transform="translate(460.751482, 935.842507)"><g/></g></g><g fill="#e2e2e5" fill-opacity="1"><g transform="translate(484.789257, 935.842507)"><g><path d="M 25.3125 0 L 22.84375 -6.609375 L 10.53125 -6.609375 L 8.078125 0 L 1.453125 0 L 13.6875 -31.921875 L 19.703125 -31.921875 L 31.921875 0 Z M 20.84375 -12.21875 L 17.703125 -20.53125 C 17.210938 -21.738281 16.875 -22.691406 16.6875 -23.390625 C 16.507812 -22.691406 16.175781 -21.738281 15.6875 -20.53125 L 12.546875 -12.21875 Z M 20.84375 -12.21875 "/></g></g></g><g fill="#e2e2e5" fill-opacity="1"><g transform="translate(530.810729, 935.842507)"><g><path d="M 29.09375 0 L 23.625 0 L 10.953125 -18.609375 C 10.523438 -19.242188 10.082031 -20.050781 9.625 -21.03125 C 9.71875 -20.269531 9.765625 -19.460938 9.765625 -18.609375 L 9.765625 0 L 3.65625 0 L 3.65625 -31.921875 L 9.4375 -31.921875 L 21.796875 -13.546875 C 22.316406 -12.691406 22.757812 -11.882812 23.125 -11.125 C 23.03125 -11.851562 22.984375 -12.660156 22.984375 -13.546875 L 22.984375 -31.921875 L 29.09375 -31.921875 Z M 29.09375 0 "/></g></g></g><g fill="#e2e2e5" fill-opacity="1"><g transform="translate(576.193668, 935.842507)"><g><path d="M 25.3125 0 L 22.84375 -6.609375 L 10.53125 -6.609375 L 8.078125 0 L 1.453125 0 L 13.6875 -31.921875 L 19.703125 -31.921875 L 31.921875 0 Z M 20.84375 -12.21875 L 17.703125 -20.53125 C 17.210938 -21.738281 16.875 -22.691406 16.6875 -23.390625 C 16.507812 -22.691406 16.175781 -21.738281 15.6875 -20.53125 L 12.546875 -12.21875 Z M 20.84375 -12.21875 "/></g></g></g><g fill="#e2e2e5" fill-opacity="1"><g transform="translate(622.215164, 935.842507)"><g><path d="M 3.65625 0 L 3.65625 -31.921875 L 9.8125 -31.921875 L 9.8125 -5.921875 L 25.21875 -5.921875 L 25.21875 0 Z M 3.65625 0 "/></g></g></g><g fill="#e2e2e5" fill-opacity="1"><g transform="translate(660.75671, 935.842507)"><g><path d="M 12.71875 0 L 12.71875 -12.453125 L 0.90625 -31.921875 L 7.890625 -31.921875 L 15.78125 -18.875 L 23.671875 -31.921875 L 30.65625 -31.921875 L 18.84375 -12.453125 L 18.84375 0 Z M 12.71875 0 "/></g></g></g><g fill="#e2e2e5" fill-opacity="1"><g transform="translate(704.953789, 935.842507)"><g><path d="M 14.234375 0.546875 C 11.253906 0.546875 8.664062 -0.226562 6.46875 -1.78125 C 4.28125 -3.332031 2.734375 -5.472656 1.828125 -8.203125 L 7.4375 -10.3125 C 8.132812 -8.789062 9.085938 -7.570312 10.296875 -6.65625 C 11.515625 -5.75 12.882812 -5.296875 14.40625 -5.296875 C 15.988281 -5.296875 17.242188 -5.628906 18.171875 -6.296875 C 19.097656 -6.960938 19.5625 -7.921875 19.5625 -9.171875 C 19.5625 -9.804688 19.410156 -10.363281 19.109375 -10.84375 C 18.804688 -11.332031 18.289062 -11.773438 17.5625 -12.171875 C 16.832031 -12.566406 16.1875 -12.878906 15.625 -13.109375 C 15.0625 -13.335938 14.21875 -13.632812 13.09375 -14 C 11.8125 -14.425781 10.84375 -14.757812 10.1875 -15 C 9.539062 -15.25 8.679688 -15.660156 7.609375 -16.234375 C 6.546875 -16.816406 5.738281 -17.398438 5.1875 -17.984375 C 4.644531 -18.578125 4.15625 -19.367188 3.71875 -20.359375 C 3.28125 -21.347656 3.0625 -22.453125 3.0625 -23.671875 C 3.0625 -26.160156 4.03125 -28.25 5.96875 -29.9375 C 7.914062 -31.625 10.546875 -32.46875 13.859375 -32.46875 C 16.597656 -32.46875 18.898438 -31.785156 20.765625 -30.421875 C 22.640625 -29.054688 23.882812 -27.273438 24.5 -25.078125 L 18.96875 -23.265625 C 17.96875 -25.515625 16.144531 -26.640625 13.5 -26.640625 C 12.164062 -26.640625 11.125 -26.375 10.375 -25.84375 C 9.632812 -25.3125 9.265625 -24.554688 9.265625 -23.578125 C 9.265625 -22.941406 9.566406 -22.367188 10.171875 -21.859375 C 10.773438 -21.359375 11.394531 -20.976562 12.03125 -20.71875 C 12.675781 -20.46875 13.679688 -20.113281 15.046875 -19.65625 C 16.109375 -19.289062 16.925781 -19 17.5 -18.78125 C 18.082031 -18.570312 18.875 -18.238281 19.875 -17.78125 C 20.882812 -17.332031 21.671875 -16.863281 22.234375 -16.375 C 22.796875 -15.882812 23.390625 -15.296875 24.015625 -14.609375 C 24.640625 -13.929688 25.085938 -13.128906 25.359375 -12.203125 C 25.628906 -11.273438 25.765625 -10.265625 25.765625 -9.171875 C 25.765625 -6.160156 24.675781 -3.785156 22.5 -2.046875 C 20.332031 -0.316406 17.578125 0.546875 14.234375 0.546875 Z M 14.234375 0.546875 "/></g></g></g><g fill="#e2e2e5" fill-opacity="1"><g transform="translate(745.638996, 935.842507)"><g><path d="M 16.875 -26 L 16.875 0 L 10.71875 0 L 10.71875 -26 L 1.59375 -26 L 1.59375 -31.921875 L 26 -31.921875 L 26 -26 Z M 16.875 -26 "/></g></g></g><g fill="#e2e2e5" fill-opacity="1"><g transform="translate(785.868088, 935.842507)"><g/></g></g><g fill="#e2e2e5" fill-opacity="1"><g transform="translate(809.905852, 935.842507)"><g><path d="M 14.234375 0.546875 C 11.253906 0.546875 8.664062 -0.226562 6.46875 -1.78125 C 4.28125 -3.332031 2.734375 -5.472656 1.828125 -8.203125 L 7.4375 -10.3125 C 8.132812 -8.789062 9.085938 -7.570312 10.296875 -6.65625 C 11.515625 -5.75 12.882812 -5.296875 14.40625 -5.296875 C 15.988281 -5.296875 17.242188 -5.628906 18.171875 -6.296875 C 19.097656 -6.960938 19.5625 -7.921875 19.5625 -9.171875 C 19.5625 -9.804688 19.410156 -10.363281 19.109375 -10.84375 C 18.804688 -11.332031 18.289062 -11.773438 17.5625 -12.171875 C 16.832031 -12.566406 16.1875 -12.878906 15.625 -13.109375 C 15.0625 -13.335938 14.21875 -13.632812 13.09375 -14 C 11.8125 -14.425781 10.84375 -14.757812 10.1875 -15 C 9.539062 -15.25 8.679688 -15.660156 7.609375 -16.234375 C 6.546875 -16.816406 5.738281 -17.398438 5.1875 -17.984375 C 4.644531 -18.578125 4.15625 -19.367188 3.71875 -20.359375 C 3.28125 -21.347656 3.0625 -22.453125 3.0625 -23.671875 C 3.0625 -26.160156 4.03125 -28.25 5.96875 -29.9375 C 7.914062 -31.625 10.546875 -32.46875 13.859375 -32.46875 C 16.597656 -32.46875 18.898438 -31.785156 20.765625 -30.421875 C 22.640625 -29.054688 23.882812 -27.273438 24.5 -25.078125 L 18.96875 -23.265625 C 17.96875 -25.515625 16.144531 -26.640625 13.5 -26.640625 C 12.164062 -26.640625 11.125 -26.375 10.375 -25.84375 C 9.632812 -25.3125 9.265625 -24.554688 9.265625 -23.578125 C 9.265625 -22.941406 9.566406 -22.367188 10.171875 -21.859375 C 10.773438 -21.359375 11.394531 -20.976562 12.03125 -20.71875 C 12.675781 -20.46875 13.679688 -20.113281 15.046875 -19.65625 C 16.109375 -19.289062 16.925781 -19 17.5 -18.78125 C 18.082031 -18.570312 18.875 -18.238281 19.875 -17.78125 C 20.882812 -17.332031 21.671875 -16.863281 22.234375 -16.375 C 22.796875 -15.882812 23.390625 -15.296875 24.015625 -14.609375 C 24.640625 -13.929688 25.085938 -13.128906 25.359375 -12.203125 C 25.628906 -11.273438 25.765625 -10.265625 25.765625 -9.171875 C 25.765625 -6.160156 24.675781 -3.785156 22.5 -2.046875 C 20.332031 -0.316406 17.578125 0.546875 14.234375 0.546875 Z M 14.234375 0.546875 "/></g></g></g><g fill="#e2e2e5" fill-opacity="1"><g transform="translate(850.591059, 935.842507)"><g><path d="M 3.65625 0 L 3.65625 -31.921875 L 17.328125 -31.921875 C 19.273438 -31.921875 20.96875 -31.628906 22.40625 -31.046875 C 23.851562 -30.472656 24.988281 -29.703125 25.8125 -28.734375 C 26.632812 -27.765625 27.242188 -26.703125 27.640625 -25.546875 C 28.035156 -24.390625 28.234375 -23.15625 28.234375 -21.84375 C 28.234375 -19.195312 27.3125 -16.851562 25.46875 -14.8125 C 23.632812 -12.78125 20.921875 -11.765625 17.328125 -11.765625 L 9.8125 -11.765625 L 9.8125 0 Z M 17.609375 -17.609375 C 19.035156 -17.609375 20.097656 -18.023438 20.796875 -18.859375 C 21.492188 -19.691406 21.84375 -20.6875 21.84375 -21.84375 C 21.84375 -22.96875 21.507812 -23.957031 20.84375 -24.8125 C 20.175781 -25.664062 19.097656 -26.09375 17.609375 -26.09375 L 9.8125 -26.09375 L 9.8125 -17.609375 Z M 17.609375 -17.609375 "/></g></g></g><g fill="#e2e2e5" fill-opacity="1"><g transform="translate(892.370871, 935.842507)"><g><path d="M 3.65625 0 L 3.65625 -31.921875 L 25.453125 -31.921875 L 25.453125 -26.09375 L 9.8125 -26.09375 L 9.8125 -19.390625 L 19.015625 -19.390625 L 19.015625 -13.546875 L 9.8125 -13.546875 L 9.8125 -5.84375 L 26.40625 -5.84375 L 26.40625 0 Z M 3.65625 0 "/></g></g></g><g fill="#e2e2e5" fill-opacity="1"><g transform="translate(933.46651, 935.842507)"><g><path d="M 15.921875 0.5 C 13.515625 0.5 11.414062 0.0195312 9.625 -0.9375 C 7.832031 -1.894531 6.429688 -3.1875 5.421875 -4.8125 C 4.421875 -6.4375 3.6875 -8.175781 3.21875 -10.03125 C 2.75 -11.882812 2.515625 -13.863281 2.515625 -15.96875 C 2.515625 -17.90625 2.753906 -19.796875 3.234375 -21.640625 C 3.722656 -23.484375 4.46875 -25.234375 5.46875 -26.890625 C 6.476562 -28.546875 7.878906 -29.878906 9.671875 -30.890625 C 11.460938 -31.910156 13.546875 -32.421875 15.921875 -32.421875 C 18.773438 -32.421875 21.179688 -31.722656 23.140625 -30.328125 C 25.109375 -28.929688 26.5 -27.226562 27.3125 -25.21875 L 21.796875 -22.71875 C 20.953125 -24.019531 20.085938 -24.972656 19.203125 -25.578125 C 18.316406 -26.191406 17.222656 -26.5 15.921875 -26.5 C 14.242188 -26.5 12.847656 -25.925781 11.734375 -24.78125 C 10.628906 -23.644531 9.878906 -22.320312 9.484375 -20.8125 C 9.085938 -19.3125 8.890625 -17.695312 8.890625 -15.96875 C 8.890625 -13.195312 9.488281 -10.742188 10.6875 -8.609375 C 11.894531 -6.484375 13.640625 -5.421875 15.921875 -5.421875 C 18.140625 -5.421875 20.066406 -6.789062 21.703125 -9.53125 L 27.359375 -7.390625 C 24.992188 -2.128906 21.179688 0.5 15.921875 0.5 Z M 15.921875 0.5 "/></g></g></g><g fill="#e2e2e5" fill-opacity="1"><g transform="translate(975.291915, 935.842507)"><g><path d="M 3.875 0 L 3.875 -31.921875 L 10.03125 -31.921875 L 10.03125 0 Z M 3.875 0 "/></g></g></g><g fill="#e2e2e5" fill-opacity="1"><g transform="translate(1001.838224, 935.842507)"><g><path d="M 25.3125 0 L 22.84375 -6.609375 L 10.53125 -6.609375 L 8.078125 0 L 1.453125 0 L 13.6875 -31.921875 L 19.703125 -31.921875 L 31.921875 0 Z M 20.84375 -12.21875 L 17.703125 -20.53125 C 17.210938 -21.738281 16.875 -22.691406 16.6875 -23.390625 C 16.507812 -22.691406 16.175781 -21.738281 15.6875 -20.53125 L 12.546875 -12.21875 Z M 20.84375 -12.21875 "/></g></g></g><g fill="#e2e2e5" fill-opacity="1"><g transform="translate(1047.85972, 935.842507)"><g><path d="M 3.65625 0 L 3.65625 -31.921875 L 9.8125 -31.921875 L 9.8125 -5.921875 L 25.21875 -5.921875 L 25.21875 0 Z M 3.65625 0 "/></g></g></g><g fill="#e2e2e5" fill-opacity="1"><g transform="translate(1086.40122, 935.842507)"><g><path d="M 3.875 0 L 3.875 -31.921875 L 10.03125 -31.921875 L 10.03125 0 Z M 3.875 0 "/></g></g></g><g fill="#e2e2e5" fill-opacity="1"><g transform="translate(1112.947574, 935.842507)"><g><path d="M 14.234375 0.546875 C 11.253906 0.546875 8.664062 -0.226562 6.46875 -1.78125 C 4.28125 -3.332031 2.734375 -5.472656 1.828125 -8.203125 L 7.4375 -10.3125 C 8.132812 -8.789062 9.085938 -7.570312 10.296875 -6.65625 C 11.515625 -5.75 12.882812 -5.296875 14.40625 -5.296875 C 15.988281 -5.296875 17.242188 -5.628906 18.171875 -6.296875 C 19.097656 -6.960938 19.5625 -7.921875 19.5625 -9.171875 C 19.5625 -9.804688 19.410156 -10.363281 19.109375 -10.84375 C 18.804688 -11.332031 18.289062 -11.773438 17.5625 -12.171875 C 16.832031 -12.566406 16.1875 -12.878906 15.625 -13.109375 C 15.0625 -13.335938 14.21875 -13.632812 13.09375 -14 C 11.8125 -14.425781 10.84375 -14.757812 10.1875 -15 C 9.539062 -15.25 8.679688 -15.660156 7.609375 -16.234375 C 6.546875 -16.816406 5.738281 -17.398438 5.1875 -17.984375 C 4.644531 -18.578125 4.15625 -19.367188 3.71875 -20.359375 C 3.28125 -21.347656 3.0625 -22.453125 3.0625 -23.671875 C 3.0625 -26.160156 4.03125 -28.25 5.96875 -29.9375 C 7.914062 -31.625 10.546875 -32.46875 13.859375 -32.46875 C 16.597656 -32.46875 18.898438 -31.785156 20.765625 -30.421875 C 22.640625 -29.054688 23.882812 -27.273438 24.5 -25.078125 L 18.96875 -23.265625 C 17.96875 -25.515625 16.144531 -26.640625 13.5 -26.640625 C 12.164062 -26.640625 11.125 -26.375 10.375 -25.84375 C 9.632812 -25.3125 9.265625 -24.554688 9.265625 -23.578125 C 9.265625 -22.941406 9.566406 -22.367188 10.171875 -21.859375 C 10.773438 -21.359375 11.394531 -20.976562 12.03125 -20.71875 C 12.675781 -20.46875 13.679688 -20.113281 15.046875 -19.65625 C 16.109375 -19.289062 16.925781 -19 17.5 -18.78125 C 18.082031 -18.570312 18.875 -18.238281 19.875 -17.78125 C 20.882812 -17.332031 21.671875 -16.863281 22.234375 -16.375 C 22.796875 -15.882812 23.390625 -15.296875 24.015625 -14.609375 C 24.640625 -13.929688 25.085938 -13.128906 25.359375 -12.203125 C 25.628906 -11.273438 25.765625 -10.265625 25.765625 -9.171875 C 25.765625 -6.160156 24.675781 -3.785156 22.5 -2.046875 C 20.332031 -0.316406 17.578125 0.546875 14.234375 0.546875 Z M 14.234375 0.546875 "/></g></g></g><g fill="#e2e2e5" fill-opacity="1"><g transform="translate(1153.63269, 935.842507)"><g><path d="M 16.875 -26 L 16.875 0 L 10.71875 0 L 10.71875 -26 L 1.59375 -26 L 1.59375 -31.921875 L 26 -31.921875 L 26 -26 Z M 16.875 -26 "/></g></g></g><g fill="#e2e2e5" fill-opacity="1"><g transform="translate(154.117419, 850.461411)"><g><path d="M 39.59375 -26.421875 L 39.59375 -35.5 C 39.59375 -38.675781 38.734375 -41.019531 37.015625 -42.53125 C 35.304688 -44.039062 33.335938 -44.796875 31.109375 -44.796875 L 23.734375 -44.796875 L 23.734375 -17.9375 L 31.484375 -17.9375 C 33.265625 -17.9375 34.75 -18.367188 35.9375 -19.234375 C 37.132812 -20.109375 38.039062 -21.1875 38.65625 -22.46875 C 39.28125 -23.757812 39.59375 -25.078125 39.59375 -26.421875 Z M 38.921875 -68.765625 L 38.921875 -76.046875 C 38.921875 -79.128906 38.125 -81.375 36.53125 -82.78125 C 34.945312 -84.195312 32.941406 -84.90625 30.515625 -84.90625 L 23.734375 -84.90625 L 23.734375 -60.796875 L 30.28125 -60.796875 C 31.375 -60.796875 32.585938 -61.019531 33.921875 -61.46875 C 35.265625 -61.914062 36.429688 -62.707031 37.421875 -63.84375 C 38.421875 -64.988281 38.921875 -66.628906 38.921875 -68.765625 Z M 57.75 -77.171875 L 57.75 -69.796875 C 57.75 -67.023438 57.164062 -64.472656 56 -62.140625 C 54.832031 -59.804688 53.40625 -57.867188 51.71875 -56.328125 C 50.03125 -54.796875 48.394531 -53.851562 46.8125 -53.5 C 47.851562 -53.207031 49.078125 -52.613281 50.484375 -51.71875 C 51.898438 -50.820312 53.300781 -49.582031 54.6875 -48 C 56.082031 -46.414062 57.222656 -44.441406 58.109375 -42.078125 C 59.003906 -39.722656 59.453125 -36.9375 59.453125 -33.71875 L 59.453125 -24.484375 C 59.453125 -20.859375 58.742188 -17.546875 57.328125 -14.546875 C 55.921875 -11.546875 54.015625 -8.96875 51.609375 -6.8125 C 49.203125 -4.65625 46.472656 -2.976562 43.421875 -1.78125 C 40.367188 -0.59375 37.179688 0 33.859375 0 L 7.890625 0 C 6.203125 0 5.359375 -0.941406 5.359375 -2.828125 L 5.359375 -100.09375 C 5.359375 -102.03125 6.203125 -103 7.890625 -103 L 31.546875 -103 C 36.753906 -103 41.316406 -101.867188 45.234375 -99.609375 C 49.160156 -97.347656 52.226562 -94.28125 54.4375 -90.40625 C 56.644531 -86.539062 57.75 -82.128906 57.75 -77.171875 Z M 57.75 -77.171875 "/></g></g></g><g fill="#e2e2e5" fill-opacity="1"><g transform="translate(215.207601, 850.461411)"><g><path d="M 25.15625 -17.9375 L 52.765625 -17.9375 C 53.359375 -17.9375 53.863281 -17.722656 54.28125 -17.296875 C 54.707031 -16.878906 54.921875 -16.25 54.921875 -15.40625 L 54.921875 -2.609375 C 54.921875 -1.710938 54.707031 -1.050781 54.28125 -0.625 C 53.863281 -0.207031 53.359375 0 52.765625 0 L 7.890625 0 C 6.203125 0 5.359375 -0.941406 5.359375 -2.828125 L 5.359375 -100.09375 C 5.359375 -102.03125 6.203125 -103 7.890625 -103 L 52.390625 -103 C 53.773438 -103 54.46875 -102.078125 54.46875 -100.234375 L 54.46875 -87.59375 C 54.46875 -85.800781 53.773438 -84.90625 52.390625 -84.90625 L 25.15625 -84.90625 L 25.15625 -61.015625 L 46.875 -61.015625 C 47.519531 -61.015625 48.078125 -60.816406 48.546875 -60.421875 C 49.023438 -60.023438 49.265625 -59.359375 49.265625 -58.421875 L 49.265625 -45.6875 C 49.265625 -44.800781 49.039062 -44.15625 48.59375 -43.75 C 48.144531 -43.351562 47.570312 -43.15625 46.875 -43.15625 L 25.15625 -43.15625 Z M 25.15625 -17.9375 "/></g></g></g><g fill="#e2e2e5" fill-opacity="1"><g transform="translate(271.833214, 850.461411)"><g><path d="M 44.0625 -103 L 58.859375 -103 C 59.503906 -103 60.070312 -102.796875 60.5625 -102.390625 C 61.0625 -101.992188 61.3125 -101.253906 61.3125 -100.171875 L 61.3125 -2.828125 C 61.3125 -0.941406 60.421875 0 58.640625 0 L 44.0625 0 C 42.375 0 41.53125 -0.941406 41.53125 -2.828125 L 41.53125 -43.75 L 25.15625 -43.75 L 25.15625 -2.828125 C 25.15625 -0.941406 24.335938 0 22.703125 0 L 7.8125 0 C 6.175781 0 5.359375 -0.941406 5.359375 -2.828125 L 5.359375 -100.09375 C 5.359375 -102.03125 6.175781 -103 7.8125 -103 L 22.703125 -103 C 24.335938 -103 25.15625 -102.03125 25.15625 -100.09375 L 25.15625 -61.6875 L 41.53125 -61.6875 L 41.53125 -100.09375 C 41.53125 -100.882812 41.738281 -101.566406 42.15625 -102.140625 C 42.582031 -102.710938 43.21875 -103 44.0625 -103 Z M 44.0625 -103 "/></g></g></g><g fill="#e2e2e5" fill-opacity="1"><g transform="translate(338.578516, 850.461411)"><g><path d="M 25.15625 -100.09375 L 25.15625 -2.828125 C 25.15625 -0.941406 24.335938 0 22.703125 0 L 7.8125 0 C 6.175781 0 5.359375 -0.941406 5.359375 -2.828125 L 5.359375 -100.09375 C 5.359375 -102.03125 6.175781 -103 7.8125 -103 L 22.703125 -103 C 24.335938 -103 25.15625 -102.03125 25.15625 -100.09375 Z M 22.765625 -124.796875 L 22.765625 -115.875 C 22.765625 -114.625 22.503906 -113.765625 21.984375 -113.296875 C 21.460938 -112.828125 20.757812 -112.59375 19.875 -112.59375 L 10.796875 -112.59375 C 9.992188 -112.59375 9.28125 -112.828125 8.65625 -113.296875 C 8.039062 -113.765625 7.734375 -114.625 7.734375 -115.875 L 7.734375 -124.796875 C 7.734375 -125.785156 7.96875 -126.613281 8.4375 -127.28125 C 8.914062 -127.957031 9.703125 -128.296875 10.796875 -128.296875 L 19.875 -128.296875 C 21.800781 -128.296875 22.765625 -127.128906 22.765625 -124.796875 Z M 22.765625 -124.796875 "/></g></g></g><g fill="#e2e2e5" fill-opacity="1"><g transform="translate(369.160812, 850.461411)"><g><path d="M 40.78125 -41.375 L 40.78125 -2.90625 C 40.78125 -0.96875 40.0625 0 38.625 0 L 23.21875 0 C 21.726562 0 20.984375 -0.96875 20.984375 -2.90625 L 20.984375 -41.453125 C 17.554688 -42.585938 14.488281 -44.285156 11.78125 -46.546875 C 9.082031 -48.804688 6.960938 -51.5625 5.421875 -54.8125 C 3.890625 -58.0625 3.125 -61.691406 3.125 -65.703125 L 3.203125 -101.28125 C 3.203125 -101.78125 3.320312 -102.191406 3.5625 -102.515625 C 3.8125 -102.835938 4.210938 -103 4.765625 -103 L 21.140625 -103 C 21.734375 -103 22.191406 -102.835938 22.515625 -102.515625 C 22.835938 -102.191406 23 -101.832031 23 -101.4375 L 23 -66.75 C 23 -64.414062 23.664062 -62.34375 25 -60.53125 C 26.34375 -58.726562 28.304688 -57.828125 30.890625 -57.828125 C 33.460938 -57.828125 35.429688 -58.65625 36.796875 -60.3125 C 38.160156 -61.976562 38.84375 -63.976562 38.84375 -66.3125 L 38.84375 -101.28125 C 38.84375 -101.78125 38.976562 -102.191406 39.25 -102.515625 C 39.53125 -102.835938 39.941406 -103 40.484375 -103 L 57.15625 -103 C 58.195312 -103 58.71875 -102.453125 58.71875 -101.359375 L 58.71875 -65.703125 C 58.71875 -61.585938 57.9375 -57.90625 56.375 -54.65625 C 54.8125 -51.40625 52.675781 -48.664062 49.96875 -46.4375 C 47.269531 -44.207031 44.207031 -42.519531 40.78125 -41.375 Z M 40.78125 -41.375 "/></g></g></g><g fill="#e2e2e5" fill-opacity="1"><g transform="translate(430.995088, 850.461411)"><g><path d="M 25.15625 -17.9375 L 52.765625 -17.9375 C 53.359375 -17.9375 53.863281 -17.722656 54.28125 -17.296875 C 54.707031 -16.878906 54.921875 -16.25 54.921875 -15.40625 L 54.921875 -2.609375 C 54.921875 -1.710938 54.707031 -1.050781 54.28125 -0.625 C 53.863281 -0.207031 53.359375 0 52.765625 0 L 7.890625 0 C 6.203125 0 5.359375 -0.941406 5.359375 -2.828125 L 5.359375 -100.09375 C 5.359375 -102.03125 6.203125 -103 7.890625 -103 L 52.390625 -103 C 53.773438 -103 54.46875 -102.078125 54.46875 -100.234375 L 54.46875 -87.59375 C 54.46875 -85.800781 53.773438 -84.90625 52.390625 -84.90625 L 25.15625 -84.90625 L 25.15625 -61.015625 L 46.875 -61.015625 C 47.519531 -61.015625 48.078125 -60.816406 48.546875 -60.421875 C 49.023438 -60.023438 49.265625 -59.359375 49.265625 -58.421875 L 49.265625 -45.6875 C 49.265625 -44.800781 49.039062 -44.15625 48.59375 -43.75 C 48.144531 -43.351562 47.570312 -43.15625 46.875 -43.15625 L 25.15625 -43.15625 Z M 25.15625 -17.9375 "/></g></g></g><g fill="#e2e2e5" fill-opacity="1"><g transform="translate(487.620701, 850.461411)"><g/></g></g><g fill="#e2e2e5" fill-opacity="1"><g transform="translate(522.146699, 850.461411)"><g><path d="M 57.890625 0 L 42.796875 0 C 42.046875 0 41.457031 -0.296875 41.03125 -0.890625 C 40.613281 -1.484375 40.40625 -2.179688 40.40625 -2.984375 L 40.40625 -77.6875 C 40.40625 -80.019531 39.707031 -82.09375 38.3125 -83.90625 C 36.925781 -85.71875 34.992188 -86.625 32.515625 -86.625 C 29.984375 -86.625 28.023438 -85.71875 26.640625 -83.90625 C 25.253906 -82.09375 24.5625 -80.019531 24.5625 -77.6875 L 24.5625 -2.90625 C 24.5625 -2.113281 24.398438 -1.429688 24.078125 -0.859375 C 23.753906 -0.285156 23.171875 0 22.328125 0 L 6.625 0 C 6.070312 0 5.609375 -0.285156 5.234375 -0.859375 C 4.867188 -1.429688 4.6875 -2.113281 4.6875 -2.90625 L 4.6875 -78.8125 C 4.6875 -82.382812 5.429688 -85.734375 6.921875 -88.859375 C 8.410156 -91.984375 10.429688 -94.722656 12.984375 -97.078125 C 15.535156 -99.429688 18.484375 -101.273438 21.828125 -102.609375 C 25.179688 -103.953125 28.722656 -104.625 32.453125 -104.625 C 36.171875 -104.625 39.703125 -103.953125 43.046875 -102.609375 C 46.398438 -101.273438 49.363281 -99.429688 51.9375 -97.078125 C 54.519531 -94.722656 56.554688 -91.984375 58.046875 -88.859375 C 59.535156 -85.734375 60.28125 -82.382812 60.28125 -78.8125 L 60.28125 -2.984375 C 60.28125 -2.234375 60.09375 -1.546875 59.71875 -0.921875 C 59.34375 -0.304688 58.734375 0 57.890625 0 Z M 57.890625 0 "/></g></g></g><g fill="#e2e2e5" fill-opacity="1"><g transform="translate(587.106151, 850.461411)"><g><path d="M 25.15625 -100.09375 L 25.15625 -2.828125 C 25.15625 -0.941406 24.335938 0 22.703125 0 L 7.8125 0 C 6.175781 0 5.359375 -0.941406 5.359375 -2.828125 L 5.359375 -100.09375 C 5.359375 -102.03125 6.175781 -103 7.8125 -103 L 22.703125 -103 C 24.335938 -103 25.15625 -102.03125 25.15625 -100.09375 Z M 22.765625 -124.796875 L 22.765625 -115.875 C 22.765625 -114.625 22.503906 -113.765625 21.984375 -113.296875 C 21.460938 -112.828125 20.757812 -112.59375 19.875 -112.59375 L 10.796875 -112.59375 C 9.992188 -112.59375 9.28125 -112.828125 8.65625 -113.296875 C 8.039062 -113.765625 7.734375 -114.625 7.734375 -115.875 L 7.734375 -124.796875 C 7.734375 -125.785156 7.96875 -126.613281 8.4375 -127.28125 C 8.914062 -127.957031 9.703125 -128.296875 10.796875 -128.296875 L 19.875 -128.296875 C 21.800781 -128.296875 22.765625 -127.128906 22.765625 -124.796875 Z M 22.765625 -124.796875 "/></g></g></g><g fill="#e2e2e5" fill-opacity="1"><g transform="translate(617.68847, 850.461411)"><g><path d="M 50.3125 0 L 7.890625 0 C 6.203125 0 5.359375 -0.941406 5.359375 -2.828125 L 5.359375 -100.09375 C 5.359375 -102.03125 6.175781 -103 7.8125 -103 L 22.703125 -103 C 24.335938 -103 25.15625 -102.03125 25.15625 -100.09375 L 25.15625 -17.9375 L 50.3125 -17.9375 C 51.695312 -17.9375 52.390625 -17.09375 52.390625 -15.40625 L 52.390625 -2.671875 C 52.390625 -0.890625 51.695312 0 50.3125 0 Z M 50.3125 0 "/></g></g></g><g fill="#e2e2e5" fill-opacity="1"><g transform="translate(671.709751, 850.461411)"><g><path d="M 24.5625 -77.6875 L 24.5625 -41.890625 L 40.40625 -41.890625 L 40.40625 -77.6875 C 40.40625 -80.019531 39.707031 -82.09375 38.3125 -83.90625 C 36.925781 -85.71875 34.992188 -86.625 32.515625 -86.625 C 29.984375 -86.625 28.023438 -85.71875 26.640625 -83.90625 C 25.253906 -82.09375 24.5625 -80.019531 24.5625 -77.6875 Z M 60.28125 -78.8125 L 60.28125 -2.984375 C 60.28125 -2.234375 60.09375 -1.546875 59.71875 -0.921875 C 59.34375 -0.304688 58.734375 0 57.890625 0 L 42.796875 0 C 42.046875 0 41.457031 -0.296875 41.03125 -0.890625 C 40.613281 -1.484375 40.40625 -2.179688 40.40625 -2.984375 L 40.40625 -24.5625 L 24.5625 -24.5625 L 24.5625 -2.90625 C 24.5625 -2.113281 24.410156 -1.429688 24.109375 -0.859375 C 23.816406 -0.285156 23.222656 0 22.328125 0 L 6.625 0 C 6.070312 0 5.609375 -0.285156 5.234375 -0.859375 C 4.867188 -1.429688 4.6875 -2.113281 4.6875 -2.90625 L 4.6875 -78.8125 C 4.6875 -82.382812 5.429688 -85.734375 6.921875 -88.859375 C 8.410156 -91.984375 10.429688 -94.722656 12.984375 -97.078125 C 15.535156 -99.429688 18.484375 -101.273438 21.828125 -102.609375 C 25.179688 -103.953125 28.722656 -104.625 32.453125 -104.625 C 36.171875 -104.625 39.703125 -103.953125 43.046875 -102.609375 C 46.398438 -101.273438 49.363281 -99.429688 51.9375 -97.078125 C 54.519531 -94.722656 56.554688 -91.984375 58.046875 -88.859375 C 59.535156 -85.734375 60.28125 -82.382812 60.28125 -78.8125 Z M 60.28125 -78.8125 "/></g></g></g><g fill="#e2e2e5" fill-opacity="1"><g transform="translate(736.669248, 850.461411)"><g><path d="M 40.78125 -41.375 L 40.78125 -2.90625 C 40.78125 -0.96875 40.0625 0 38.625 0 L 23.21875 0 C 21.726562 0 20.984375 -0.96875 20.984375 -2.90625 L 20.984375 -41.453125 C 17.554688 -42.585938 14.488281 -44.285156 11.78125 -46.546875 C 9.082031 -48.804688 6.960938 -51.5625 5.421875 -54.8125 C 3.890625 -58.0625 3.125 -61.691406 3.125 -65.703125 L 3.203125 -101.28125 C 3.203125 -101.78125 3.320312 -102.191406 3.5625 -102.515625 C 3.8125 -102.835938 4.210938 -103 4.765625 -103 L 21.140625 -103 C 21.734375 -103 22.191406 -102.835938 22.515625 -102.515625 C 22.835938 -102.191406 23 -101.832031 23 -101.4375 L 23 -66.75 C 23 -64.414062 23.664062 -62.34375 25 -60.53125 C 26.34375 -58.726562 28.304688 -57.828125 30.890625 -57.828125 C 33.460938 -57.828125 35.429688 -58.65625 36.796875 -60.3125 C 38.160156 -61.976562 38.84375 -63.976562 38.84375 -66.3125 L 38.84375 -101.28125 C 38.84375 -101.78125 38.976562 -102.191406 39.25 -102.515625 C 39.53125 -102.835938 39.941406 -103 40.484375 -103 L 57.15625 -103 C 58.195312 -103 58.71875 -102.453125 58.71875 -101.359375 L 58.71875 -65.703125 C 58.71875 -61.585938 57.9375 -57.90625 56.375 -54.65625 C 54.8125 -51.40625 52.675781 -48.664062 49.96875 -46.4375 C 47.269531 -44.207031 44.207031 -42.519531 40.78125 -41.375 Z M 40.78125 -41.375 "/></g></g></g><g fill="#e2e2e5" fill-opacity="1"><g transform="translate(798.503502, 850.461411)"><g/></g></g><g fill="#e2e2e5" fill-opacity="1"><g transform="translate(833.0295, 850.461411)"><g><path d="M 59.3125 -78.734375 L 59.3125 -24.1875 C 59.3125 -20.164062 58.566406 -16.554688 57.078125 -13.359375 C 55.585938 -10.160156 53.550781 -7.441406 50.96875 -5.203125 C 48.394531 -2.972656 45.421875 -1.273438 42.046875 -0.109375 C 38.671875 1.054688 35.125 1.640625 31.40625 1.640625 C 27.6875 1.640625 24.160156 1.03125 20.828125 -0.1875 C 17.503906 -1.40625 14.550781 -3.128906 11.96875 -5.359375 C 9.394531 -7.585938 7.375 -10.300781 5.90625 -13.5 C 4.445312 -16.707031 3.71875 -20.269531 3.71875 -24.1875 L 3.71875 -78.734375 C 3.71875 -82.753906 4.445312 -86.363281 5.90625 -89.5625 C 7.375 -92.757812 9.394531 -95.472656 11.96875 -97.703125 C 14.550781 -99.941406 17.503906 -101.644531 20.828125 -102.8125 C 24.160156 -103.976562 27.6875 -104.5625 31.40625 -104.5625 C 35.125 -104.5625 38.671875 -103.976562 42.046875 -102.8125 C 45.421875 -101.644531 48.394531 -99.941406 50.96875 -97.703125 C 53.550781 -95.472656 55.585938 -92.769531 57.078125 -89.59375 C 58.566406 -86.414062 59.3125 -82.796875 59.3125 -78.734375 Z M 31.546875 -86.703125 C 29.015625 -86.703125 27.039062 -85.78125 25.625 -83.9375 C 24.21875 -82.101562 23.515625 -79.992188 23.515625 -77.609375 L 23.515625 -25.234375 C 23.515625 -22.898438 24.195312 -20.828125 25.5625 -19.015625 C 26.925781 -17.203125 28.875 -16.296875 31.40625 -16.296875 C 33.988281 -16.296875 35.984375 -17.125 37.390625 -18.78125 C 38.804688 -20.445312 39.515625 -22.445312 39.515625 -24.78125 L 39.515625 -77.609375 C 39.515625 -79.992188 38.804688 -82.101562 37.390625 -83.9375 C 35.984375 -85.78125 34.035156 -86.703125 31.546875 -86.703125 Z M 31.546875 -86.703125 "/></g></g></g><g fill="#e2e2e5" fill-opacity="1"><g transform="translate(896.054306, 850.461411)"><g><path d="M 39.671875 -24.78125 L 39.671875 -39.21875 L 34.15625 -39.21875 C 32.664062 -39.21875 31.921875 -40.0625 31.921875 -41.75 L 31.921875 -53.0625 C 31.921875 -54.789062 32.664062 -55.65625 34.15625 -55.65625 L 55.59375 -55.65625 C 57.375 -55.65625 58.265625 -54.71875 58.265625 -52.84375 L 58.265625 -24.1875 C 58.265625 -18.832031 57.0625 -14.21875 54.65625 -10.34375 C 52.25 -6.476562 49.023438 -3.515625 44.984375 -1.453125 C 40.941406 0.609375 36.414062 1.640625 31.40625 1.640625 C 27.726562 1.640625 24.226562 1.070312 20.90625 -0.0625 C 17.582031 -1.207031 14.628906 -2.882812 12.046875 -5.09375 C 9.472656 -7.300781 7.441406 -10.003906 5.953125 -13.203125 C 4.460938 -16.410156 3.71875 -20.070312 3.71875 -24.1875 L 3.71875 -78.734375 C 3.71875 -82.753906 4.445312 -86.363281 5.90625 -89.5625 C 7.375 -92.757812 9.394531 -95.472656 11.96875 -97.703125 C 14.550781 -99.941406 17.515625 -101.644531 20.859375 -102.8125 C 24.210938 -103.976562 27.753906 -104.5625 31.484375 -104.5625 C 35.648438 -104.5625 39.242188 -103.960938 42.265625 -102.765625 C 45.296875 -101.578125 47.816406 -100.015625 49.828125 -98.078125 C 51.835938 -96.140625 53.421875 -94.003906 54.578125 -91.671875 C 55.742188 -89.347656 56.578125 -87.019531 57.078125 -84.6875 C 57.578125 -82.351562 57.828125 -80.242188 57.828125 -78.359375 L 57.828125 -71.59375 C 57.828125 -70.5 57.648438 -69.703125 57.296875 -69.203125 C 56.953125 -68.710938 56.359375 -68.46875 55.515625 -68.46875 L 41.453125 -68.46875 C 40.609375 -68.46875 40.035156 -68.6875 39.734375 -69.125 C 39.441406 -69.570312 39.296875 -70.296875 39.296875 -71.296875 L 39.296875 -77.84375 C 39.296875 -79.332031 38.984375 -80.757812 38.359375 -82.125 C 37.742188 -83.488281 36.835938 -84.59375 35.640625 -85.4375 C 34.453125 -86.28125 33.015625 -86.703125 31.328125 -86.703125 C 28.941406 -86.703125 27.039062 -85.859375 25.625 -84.171875 C 24.21875 -82.484375 23.515625 -80.445312 23.515625 -78.0625 L 23.515625 -25.15625 C 23.515625 -22.519531 24.28125 -20.382812 25.8125 -18.75 C 27.351562 -17.113281 29.21875 -16.296875 31.40625 -16.296875 C 33.78125 -16.296875 35.75 -17.125 37.3125 -18.78125 C 38.882812 -20.445312 39.671875 -22.445312 39.671875 -24.78125 Z M 46.4375 -125.015625 C 46.4375 -121.742188 45.71875 -119.039062 44.28125 -116.90625 C 42.84375 -114.769531 40.957031 -113.191406 38.625 -112.171875 C 36.289062 -111.160156 33.785156 -110.65625 31.109375 -110.65625 C 28.472656 -110.65625 25.960938 -111.160156 23.578125 -112.171875 C 21.203125 -113.191406 19.269531 -114.769531 17.78125 -116.90625 C 16.289062 -119.039062 15.546875 -121.742188 15.546875 -125.015625 C 15.546875 -125.816406 15.753906 -126.453125 16.171875 -126.921875 C 16.597656 -127.390625 17.035156 -127.625 17.484375 -127.625 L 23.59375 -127.625 C 24.882812 -127.625 25.53125 -126.976562 25.53125 -125.6875 C 25.53125 -124.445312 26 -123.242188 26.9375 -122.078125 C 27.882812 -120.910156 29.347656 -120.328125 31.328125 -120.328125 C 33.210938 -120.328125 34.613281 -120.894531 35.53125 -122.03125 C 36.445312 -123.175781 36.90625 -124.394531 36.90625 -125.6875 C 36.90625 -126.976562 37.453125 -127.625 38.546875 -127.625 L 44.421875 -127.625 C 45.117188 -127.625 45.628906 -127.390625 45.953125 -126.921875 C 46.273438 -126.453125 46.4375 -125.816406 46.4375 -125.015625 Z M 46.4375 -125.015625 "/></g></g></g><g fill="#e2e2e5" fill-opacity="1"><g transform="translate(957.739786, 850.461411)"><g><path d="M 40.40625 -25.296875 L 40.40625 -100.015625 C 40.40625 -100.804688 40.601562 -101.5 41 -102.09375 C 41.394531 -102.695312 41.992188 -103 42.796875 -103 L 57.890625 -103 C 58.734375 -103 59.34375 -102.6875 59.71875 -102.0625 C 60.09375 -101.445312 60.28125 -100.765625 60.28125 -100.015625 L 60.28125 -24.1875 C 60.28125 -20.613281 59.535156 -17.265625 58.046875 -14.140625 C 56.554688 -11.015625 54.519531 -8.269531 51.9375 -5.90625 C 49.363281 -3.550781 46.398438 -1.703125 43.046875 -0.359375 C 39.703125 0.972656 36.171875 1.640625 32.453125 1.640625 C 28.722656 1.640625 25.179688 0.972656 21.828125 -0.359375 C 18.484375 -1.703125 15.535156 -3.550781 12.984375 -5.90625 C 10.429688 -8.269531 8.410156 -11.015625 6.921875 -14.140625 C 5.429688 -17.265625 4.6875 -20.613281 4.6875 -24.1875 L 4.6875 -100.09375 C 4.6875 -100.882812 4.882812 -101.566406 5.28125 -102.140625 C 5.675781 -102.710938 6.125 -103 6.625 -103 L 22.328125 -103 C 23.222656 -103 23.816406 -102.710938 24.109375 -102.140625 C 24.410156 -101.566406 24.5625 -100.882812 24.5625 -100.09375 L 24.5625 -25.296875 C 24.5625 -22.960938 25.253906 -20.878906 26.640625 -19.046875 C 28.023438 -17.210938 29.984375 -16.296875 32.515625 -16.296875 C 34.203125 -16.296875 35.628906 -16.71875 36.796875 -17.5625 C 37.960938 -18.40625 38.851562 -19.519531 39.46875 -20.90625 C 40.09375 -22.300781 40.40625 -23.765625 40.40625 -25.296875 Z M 40.40625 -25.296875 "/></g></g></g><g fill="#e2e2e5" fill-opacity="1"><g transform="translate(1022.699283, 850.461411)"><g><path d="M 50.3125 0 L 7.890625 0 C 6.203125 0 5.359375 -0.941406 5.359375 -2.828125 L 5.359375 -100.09375 C 5.359375 -102.03125 6.175781 -103 7.8125 -103 L 22.703125 -103 C 24.335938 -103 25.15625 -102.03125 25.15625 -100.09375 L 25.15625 -17.9375 L 50.3125 -17.9375 C 51.695312 -17.9375 52.390625 -17.09375 52.390625 -15.40625 L 52.390625 -2.671875 C 52.390625 -0.890625 51.695312 0 50.3125 0 Z M 50.3125 0 "/></g></g></g><g fill="#e2e2e5" fill-opacity="1"><g transform="translate(1076.720519, 850.461411)"><g><path d="M 49.640625 -84.90625 L 35.796875 -84.90625 L 35.796875 -2.609375 C 35.796875 -1.765625 35.582031 -1.117188 35.15625 -0.671875 C 34.738281 -0.222656 34.234375 0 33.640625 0 L 18.078125 0 C 17.429688 0 16.910156 -0.222656 16.515625 -0.671875 C 16.117188 -1.117188 15.921875 -1.765625 15.921875 -2.609375 L 15.921875 -84.90625 L 2.078125 -84.90625 C 1.429688 -84.90625 0.910156 -85.128906 0.515625 -85.578125 C 0.117188 -86.023438 -0.078125 -86.695312 -0.078125 -87.59375 L -0.078125 -100.234375 C -0.078125 -101.128906 0.117188 -101.8125 0.515625 -102.28125 C 0.910156 -102.757812 1.429688 -103 2.078125 -103 L 49.640625 -103 C 50.285156 -103 50.804688 -102.773438 51.203125 -102.328125 C 51.597656 -101.878906 51.796875 -101.207031 51.796875 -100.3125 L 51.796875 -87.59375 C 51.796875 -86.695312 51.597656 -86.023438 51.203125 -85.578125 C 50.804688 -85.128906 50.285156 -84.90625 49.640625 -84.90625 Z M 49.640625 -84.90625 "/></g></g></g><g fill="#e2e2e5" fill-opacity="1"><g transform="translate(1128.360743, 850.461411)"><g><path d="M 25.15625 -17.9375 L 52.765625 -17.9375 C 53.359375 -17.9375 53.863281 -17.722656 54.28125 -17.296875 C 54.707031 -16.878906 54.921875 -16.25 54.921875 -15.40625 L 54.921875 -2.609375 C 54.921875 -1.710938 54.707031 -1.050781 54.28125 -0.625 C 53.863281 -0.207031 53.359375 0 52.765625 0 L 7.890625 0 C 6.203125 0 5.359375 -0.941406 5.359375 -2.828125 L 5.359375 -100.09375 C 5.359375 -102.03125 6.203125 -103 7.890625 -103 L 52.390625 -103 C 53.773438 -103 54.46875 -102.078125 54.46875 -100.234375 L 54.46875 -87.59375 C 54.46875 -85.800781 53.773438 -84.90625 52.390625 -84.90625 L 25.15625 -84.90625 L 25.15625 -61.015625 L 46.875 -61.015625 C 47.519531 -61.015625 48.078125 -60.816406 48.546875 -60.421875 C 49.023438 -60.023438 49.265625 -59.359375 49.265625 -58.421875 L 49.265625 -45.6875 C 49.265625 -44.800781 49.039062 -44.15625 48.59375 -43.75 C 48.144531 -43.351562 47.570312 -43.15625 46.875 -43.15625 L 25.15625 -43.15625 Z M 25.15625 -17.9375 "/></g></g></g><g fill="#e2e2e5" fill-opacity="1"><g transform="translate(1184.986287, 850.461411)"><g><path d="M 48.375 -51.71875 C 52.632812 -48.445312 55.957031 -44.304688 58.34375 -39.296875 C 60.726562 -34.285156 61.921875 -28.476562 61.921875 -21.875 L 61.921875 -3.125 C 61.921875 -2.476562 61.71875 -1.796875 61.3125 -1.078125 C 60.914062 -0.359375 60.222656 0 59.234375 0 L 45.390625 0 C 44.546875 0 43.773438 -0.285156 43.078125 -0.859375 C 42.390625 -1.429688 42.046875 -2.257812 42.046875 -3.34375 L 42.046875 -19.578125 C 42.046875 -23.890625 41.546875 -27.679688 40.546875 -30.953125 C 39.554688 -34.234375 37.832031 -36.828125 35.375 -38.734375 C 32.925781 -40.640625 29.519531 -41.691406 25.15625 -41.890625 L 25.15625 -2.828125 C 25.15625 -0.941406 24.359375 0 22.765625 0 L 7.890625 0 C 6.203125 0 5.359375 -0.941406 5.359375 -2.828125 L 5.359375 -100.09375 C 5.359375 -102.03125 6.203125 -103 7.890625 -103 L 22.703125 -103 C 24.335938 -103 25.15625 -102.03125 25.15625 -100.09375 L 25.15625 -60.578125 C 29.269531 -60.921875 32.46875 -62.0625 34.75 -64 C 37.03125 -65.9375 38.640625 -68.53125 39.578125 -71.78125 C 40.523438 -75.03125 41 -78.738281 41 -82.90625 L 41 -99.5625 C 41 -100.707031 41.359375 -101.566406 42.078125 -102.140625 C 42.796875 -102.710938 43.578125 -103 44.421875 -103 L 58.1875 -103 C 59.1875 -103 59.882812 -102.632812 60.28125 -101.90625 C 60.675781 -101.1875 60.875 -100.484375 60.875 -99.796875 L 60.875 -80.671875 C 60.875 -74.367188 59.78125 -68.785156 57.59375 -63.921875 C 55.414062 -59.054688 52.34375 -54.988281 48.375 -51.71875 Z M 48.375 -51.71875 "/></g></g></g><g fill="#e2e2e5" fill-opacity="1"><g transform="translate(1250.317855, 850.461411)"><g><path d="M 25.15625 -100.09375 L 25.15625 -2.828125 C 25.15625 -0.941406 24.335938 0 22.703125 0 L 7.8125 0 C 6.175781 0 5.359375 -0.941406 5.359375 -2.828125 L 5.359375 -100.09375 C 5.359375 -102.03125 6.175781 -103 7.8125 -103 L 22.703125 -103 C 24.335938 -103 25.15625 -102.03125 25.15625 -100.09375 Z M 22.765625 -124.796875 L 22.765625 -115.875 C 22.765625 -114.625 22.503906 -113.765625 21.984375 -113.296875 C 21.460938 -112.828125 20.757812 -112.59375 19.875 -112.59375 L 10.796875 -112.59375 C 9.992188 -112.59375 9.28125 -112.828125 8.65625 -113.296875 C 8.039062 -113.765625 7.734375 -114.625 7.734375 -115.875 L 7.734375 -124.796875 C 7.734375 -125.785156 7.96875 -126.613281 8.4375 -127.28125 C 8.914062 -127.957031 9.703125 -128.296875 10.796875 -128.296875 L 19.875 -128.296875 C 21.800781 -128.296875 22.765625 -127.128906 22.765625 -124.796875 Z M 22.765625 -124.796875 "/></g></g></g><g fill="#e2e2e5" fill-opacity="1"><g transform="translate(1280.900128, 850.461411)"><g><path d="M 57.890625 0 L 42.796875 0 C 42.046875 0 41.457031 -0.296875 41.03125 -0.890625 C 40.613281 -1.484375 40.40625 -2.179688 40.40625 -2.984375 L 40.40625 -77.6875 C 40.40625 -80.019531 39.707031 -82.09375 38.3125 -83.90625 C 36.925781 -85.71875 34.992188 -86.625 32.515625 -86.625 C 29.984375 -86.625 28.023438 -85.71875 26.640625 -83.90625 C 25.253906 -82.09375 24.5625 -80.019531 24.5625 -77.6875 L 24.5625 -2.90625 C 24.5625 -2.113281 24.398438 -1.429688 24.078125 -0.859375 C 23.753906 -0.285156 23.171875 0 22.328125 0 L 6.625 0 C 6.070312 0 5.609375 -0.285156 5.234375 -0.859375 C 4.867188 -1.429688 4.6875 -2.113281 4.6875 -2.90625 L 4.6875 -78.8125 C 4.6875 -82.382812 5.429688 -85.734375 6.921875 -88.859375 C 8.410156 -91.984375 10.429688 -94.722656 12.984375 -97.078125 C 15.535156 -99.429688 18.484375 -101.273438 21.828125 -102.609375 C 25.179688 -103.953125 28.722656 -104.625 32.453125 -104.625 C 36.171875 -104.625 39.703125 -103.953125 43.046875 -102.609375 C 46.398438 -101.273438 49.363281 -99.429688 51.9375 -97.078125 C 54.519531 -94.722656 56.554688 -91.984375 58.046875 -88.859375 C 59.535156 -85.734375 60.28125 -82.382812 60.28125 -78.8125 L 60.28125 -2.984375 C 60.28125 -2.234375 60.09375 -1.546875 59.71875 -0.921875 C 59.34375 -0.304688 58.734375 0 57.890625 0 Z M 57.890625 0 "/></g></g></g></svg>